<svg data-v-fde0c5aa="" xmlns="http://www.w3.org/2000/svg" viewBox="0 0 300 300" class="icon"><!----><defs data-v-fde0c5aa=""><!----></defs><rect data-v-fde0c5aa="" fill="#FFFFFF" x="0" y="0" width="300px" height="300px" class="logo-background-square"></rect><!----><defs data-v-fde0c5aa=""><!----></defs><g data-v-fde0c5aa="" id="d30fc37d-e3fa-4269-b3c9-f83cc9590194" fill="#000000" stroke="none" transform="matrix(2.2916666666666665,0,0,2.2916666666666665,40,42.29166666666668)"><path d="M34 59c-6.617 0-12-5.383-12-12s5.383-12 12-12 12 5.383 12 12-5.383 12-12 12zm0-20c-4.411 0-8 3.589-8 8s3.589 8 8 8 8-3.589 8-8-3.589-8-8-8zM65 78v-4c14.888 0 27-12.112 27-27S79.888 20 65 20v-4c17.094 0 31 13.907 31 31S82.094 78 65 78z"></path><path d="M65 59.717v-4c4.807 0 8.718-3.911 8.718-8.717S69.807 38.283 65 38.283v-4c7.013 0 12.718 5.705 12.718 12.717S72.013 59.717 65 59.717z"></path><g><path d="M68 81H0V13h68v68zM4 77h60V17H4v60z"></path></g></g><!----></svg>